<svg width="40" height="40" viewBox="0 0 40 40" fill="none" xmlns="http://www.w3.org/2000/svg">
<g clip-path="url(#clip0_82_508)">
<path d="M11.7168 0.139952C9.58883 0.240352 8.13563 0.579952 6.86523 1.07915C5.55043 1.59155 4.43603 2.27915 3.32723 3.39195C2.21843 4.50475 1.53563 5.61995 1.02683 6.93675C0.534432 8.20995 0.200832 9.66435 0.106832 11.7936C0.0128324 13.9228 -0.00796757 14.6072 0.00243243 20.0384C0.0128324 25.4696 0.0368324 26.1504 0.140032 28.284C0.241632 30.4116 0.580032 31.8644 1.07923 33.1352C1.59243 34.45 2.27923 35.564 3.39243 36.6732C4.50563 37.7824 5.62003 38.4636 6.94003 38.9732C8.21203 39.4648 9.66683 39.8 11.7956 39.8932C13.9244 39.9864 14.6096 40.0079 20.0392 39.9976C25.4688 39.9872 26.1524 39.9632 28.2856 39.8619C30.4188 39.7607 31.864 39.42 33.1352 38.9232C34.45 38.4088 35.5648 37.7232 36.6732 36.6096C37.7816 35.4959 38.464 34.38 38.9724 33.0624C39.4652 31.7904 39.8 30.3356 39.8924 28.2084C39.9856 26.0736 40.0076 25.392 39.9972 19.9616C39.9868 14.5312 39.9624 13.8504 39.8612 11.7176C39.76 9.58475 39.4212 8.13635 38.9224 6.86475C38.4084 5.54995 37.7224 4.43675 36.6096 3.32675C35.4968 2.21675 34.38 1.53475 33.0628 1.02755C31.79 0.535152 30.336 0.199552 28.2072 0.107552C26.0784 0.0155515 25.3932 -0.00804848 19.9616 0.00235152C14.53 0.0127515 13.85 0.0359515 11.7168 0.139952ZM11.9504 36.2952C10.0004 36.2104 8.94163 35.8864 8.23603 35.6152C7.30163 35.2551 6.63603 34.82 5.93283 34.1236C5.22963 33.4272 4.79763 32.7592 4.43283 31.8267C4.15883 31.1212 3.82883 30.0636 3.73763 28.1136C3.63843 26.006 3.61763 25.3732 3.60603 20.0336C3.59443 14.694 3.61483 14.062 3.70723 11.9536C3.79043 10.0052 4.11643 8.94515 4.38723 8.23995C4.74723 7.30435 5.18083 6.63995 5.87883 5.93715C6.57683 5.23435 7.24283 4.80155 8.17603 4.43675C8.88083 4.16155 9.93843 3.83435 11.8876 3.74155C13.9968 3.64155 14.6288 3.62155 19.9676 3.60995C25.3064 3.59835 25.94 3.61835 28.05 3.71115C29.9984 3.79595 31.0588 4.11875 31.7632 4.39115C32.698 4.75115 33.3632 5.18355 34.066 5.88275C34.7688 6.58195 35.202 7.24555 35.5668 8.18075C35.8424 8.88355 36.1696 9.94075 36.2616 11.8912C36.362 14.0004 36.3848 14.6328 36.3944 19.9712C36.404 25.3096 36.3852 25.9436 36.2928 28.0512C36.2076 30.0012 35.8844 31.0604 35.6128 31.7668C35.2528 32.7008 34.8188 33.3667 34.1204 34.0691C33.422 34.7715 32.7568 35.2043 31.8232 35.5691C31.1192 35.8439 30.0604 36.172 28.1128 36.2648C26.0036 36.364 25.3716 36.3848 20.0308 36.3964C14.69 36.408 14.06 36.3864 11.9508 36.2952M28.2548 9.31075C28.2556 9.78546 28.3972 10.2493 28.6616 10.6435C28.926 11.0378 29.3014 11.3448 29.7403 11.5257C30.1792 11.7066 30.6618 11.7532 31.1273 11.6598C31.5927 11.5663 32.0199 11.337 32.355 11.0007C32.69 10.6644 32.9179 10.2363 33.0096 9.77055C33.1013 9.30479 33.0529 8.82228 32.8704 8.38406C32.6879 7.94584 32.3795 7.57157 31.9843 7.30861C31.5891 7.04565 31.1247 6.9058 30.65 6.90675C30.0137 6.90802 29.4038 7.16199 28.9547 7.6128C28.5055 8.06362 28.2538 8.67437 28.2548 9.31075ZM9.73083 20.02C9.74203 25.692 14.3484 30.2796 20.0192 30.2687C25.69 30.2579 30.2808 25.652 30.27 19.98C30.2592 14.308 25.6516 9.71915 19.98 9.73035C14.3084 9.74155 9.72003 14.3488 9.73083 20.02ZM13.3332 20.0128C13.3306 18.6942 13.7191 17.4045 14.4495 16.3067C15.1798 15.2089 16.2194 14.3523 17.4366 13.8453C18.6538 13.3383 19.994 13.2036 21.2877 13.4583C22.5814 13.713 23.7706 14.3456 24.7048 15.2761C25.639 16.2066 26.2763 17.3933 26.5361 18.686C26.7959 19.9787 26.6666 21.3194 26.1644 22.5386C25.6622 23.7578 24.8098 24.8007 23.7149 25.5355C22.62 26.2702 21.3318 26.6637 20.0132 26.6663C19.1377 26.6682 18.2704 26.4975 17.4608 26.1641C16.6513 25.8307 15.9153 25.3411 15.295 24.7233C14.6747 24.1054 14.1821 23.3714 13.8455 22.5631C13.5089 21.7549 13.3349 20.8883 13.3332 20.0128Z" fill="#D1D5DB"/>
</g>
<defs>
<clipPath id="clip0_82_508">
<rect width="40" height="40" fill="white"/>
</clipPath>
</defs>
</svg>
